<?xml version="1.0" encoding="UTF-8"?><svg id="Layer_1" xmlns="http://www.w3.org/2000/svg" viewBox="0 0 269.84 224"><defs><style>.cls-1{fill:#8cd92a;}.cls-2{fill:#6bb40e;}</style></defs><path class="cls-1" d="M160.3,223.83c15-26.06,31.93-50.37,49.17-74.54-4.13,3.81-8.31,7.58-12.39,11.45-19.61,18.61-37.44,38.8-53.24,60.76-1.31,1.82-2.65,2.51-4.89,2.51-26.97-.08-53.93-.05-80.9-.05-3,0-3.01-.01-2.05-2.75,9.98-28.32,27.11-51.25,51.35-69,19.11-13.99,39.79-25.09,61.31-34.79,25.39-11.45,51.59-20.6,78.39-28.07,1.99-.55,2.85-.45,3.33,1.91,3.62,17.86,6.47,35.84,8.41,53.97,1.69,15.74,2.44,31.53,2.77,47.35.2,9.76-.4,19.47-1.05,29.19-.11,1.65-.65,2.23-2.39,2.23-32.04-.05-64.09-.04-96.13-.04-.41,0-.82-.05-1.69-.11Z"/><path class="cls-2" d="M.05,223.91c-.02-3.08-.05-6.16-.05-9.24C0,148.45,0,82.25,0,16.04c0-1.17.02-2.33.02-3.5,5.53,1.32,10.68,3.69,15.92,5.79,27.16,10.92,53.52,23.42,78.02,39.59,13.16,8.69,25.73,18.12,36.64,29.59,6.38,6.71,12.25,13.82,17.01,21.81,1.1,1.85,1.05,2.68-1.05,3.68-14.07,6.69-27.72,14.18-40.65,22.89-13.09,8.82-25.35,18.64-35.68,30.68-1.93,2.25-1.94,2.24-3.52-.27-18.01-28.72-34.84-58.12-50.32-88.29-.41-.8-.87-1.57-1.76-2.23.21.89.4,1.78.64,2.66,9.73,35.72,22.98,70.06,40.6,102.65,1.27,2.35,1.46,4.13.06,6.58-6.13,10.74-11.07,22.01-14.04,34.06-.35,1.44-.87,2.26-2.63,2.25-13.07-.09-26.14-.07-39.21-.08Z"/></svg>