<?xml version="1.0" encoding="UTF-8"?><svg id="Layer_1" xmlns="http://www.w3.org/2000/svg" viewBox="0 0 269.84 224"><defs><style>.cls-1{fill:#8cd92a;}.cls-2{fill:#6bb40e;}.cls-3{fill:#8cd92a;}</style></defs><path class="cls-1" d="M74.4,114.23c-.1-.09-.21-.19-.31-.28.07-.23.12-.48.22-.7,10.55-24.45,19.74-49.38,26.65-75.11,3.25-12.08,5.77-24.3,7.12-36.76.15-1.4-.16-1.8-1.59-1.77-4.17.09-8.34.03-12.51.03-19.38,0-38.76,0-58.13,0-.98,0-1.85-.09-2.4,1.12-4.6,9.95-8.38,20.15-9.67,31.11-1.69,14.3-.78,28.52,1.68,42.65,3.76,21.63,10.04,42.54,17.96,62.99,3.43,8.86,7.06,17.63,11.11,26.23.6,1.28,1.13,1.44,2.32.73,2.9-1.72,5.88-3.3,8.8-4.98,25.48-14.7,49.36-31.57,70.35-52.29,9.15-9.04,17.34-18.9,23.6-30.18,8.5-15.32,12.43-31.89,12.58-49.35.08-9.31-1.88-18.25-5.91-26.69-.4-.85-.82-1.35-1.89-1.34-13,.04-26,.03-39,0-.98,0-1.42.3-1.54,1.31-.23,1.88-.57,3.75-.93,5.62-3.55,18.19-9.52,35.59-17.07,52.49-8.68,19.42-19.22,37.78-31.43,55.19ZM225.61,134.69c-.58-.66-1.03-1.15-1.46-1.66-16.15-18.95-33.1-37.16-50.91-54.56-1.11-1.08-1.57-1.27-2.38.31-5.38,10.42-12.42,19.66-20.37,28.24-7.76,8.38-16.24,15.99-25.08,23.21-1.78,1.45-1.77,1.47-.13,3.13,2.93,2.98,6.08,5.69,9.42,8.21,11.13,8.39,23.6,14.26,36.6,18.98,27.18,9.87,55.39,15.12,84.1,17.87,2.42.23,2.43.18,2.5-2.35.6-19.7-.41-39.32-2.99-58.86-2.21-16.68-5.59-33.07-11.5-48.9-6.75-18.07-17.81-32.83-33.16-44.47-9.24-7.01-19.3-12.06-30.91-13.7-1.26-.18-1.73-.09-1.2,1.34,2.91,7.87,3.8,16.05,3.58,24.4-.24,8.94-1.93,17.64-4.47,26.18-.43,1.44-.21,2.44.84,3.6,18.43,20.45,33.87,43,47.04,67.14.28.51.77.98.48,1.9Z"/><path class="cls-2" d="M74.4,114.23c12.21-17.41,22.75-35.76,31.43-55.19,7.55-16.9,13.52-34.3,17.07-52.49.36-1.86.7-3.74.93-5.62.13-1.02.56-1.32,1.54-1.31,13,.02,26,.03,39,0,1.07,0,1.48.5,1.89,1.34,4.03,8.44,5.99,17.38,5.91,26.69-.15,17.45-4.08,34.03-12.58,49.35-6.26,11.28-14.44,21.14-23.6,30.18-20.99,20.72-44.87,37.59-70.35,52.29-2.92,1.68-5.9,3.26-8.8,4.98-1.19.71-1.72.55-2.32-.73-4.05-8.6-7.68-17.37-11.11-26.23-7.93-20.45-14.21-41.36-17.96-62.99-2.45-14.13-3.36-28.35-1.68-42.65,1.29-10.96,5.07-21.16,9.67-31.11.56-1.21,1.43-1.12,2.4-1.12,19.38,0,38.76,0,58.13,0,4.17,0,8.34.06,12.51-.03,1.43-.03,1.74.37,1.59,1.77-1.35,12.45-3.87,24.68-7.12,36.76-6.92,25.73-16.1,50.67-26.65,75.11-.1.22-.15.47-.22.7-.21.2-.35.41-.13.7.15-.14.3-.28.44-.41Z"/><path class="cls-3" d="M225.61,134.69c.28-.92-.2-1.39-.48-1.9-13.17-24.14-28.61-46.69-47.04-67.14-1.05-1.16-1.26-2.16-.84-3.6,2.54-8.54,4.23-17.24,4.47-26.18.22-8.34-.67-16.52-3.58-24.4-.53-1.43-.06-1.52,1.2-1.34,11.61,1.64,21.67,6.69,30.91,13.7,15.34,11.64,26.41,26.41,33.16,44.47,5.91,15.83,9.29,32.22,11.5,48.9,2.58,19.54,3.59,39.16,2.99,58.86-.08,2.53-.08,2.58-2.5,2.35-28.72-2.75-56.92-8-84.1-17.87-13-4.72-25.47-10.59-36.6-18.98-3.33-2.51-6.49-5.23-9.42-8.21-1.64-1.67-1.65-1.68.13-3.13,8.84-7.22,17.32-14.83,25.08-23.21,7.94-8.58,14.99-17.82,20.37-28.24.81-1.58,1.28-1.39,2.38-.31,17.81,17.4,34.75,35.61,50.91,54.56.43.51.88,1,1.46,1.66Z"/><path class="cls-1" d="M74.4,114.23c-.15.14-.3.28-.44.41-.22-.28-.08-.5.13-.7.1.09.21.19.31.28Z"/></svg>